<svg xmlns="http://www.w3.org/2000/svg" xmlns:svg="http://www.w3.org/2000/svg" xmlns:xlink="http://www.w3.org/1999/xlink" version="1.0" height="675.0000429153442pt" width="1115.0000762939453pt" viewBox="190 317 1123.0000762939453 681.0000429153442" ><defs><style type="text/css">
            @font-face {
                font-family: 'noto_regular';
                src: url('https://app.creately.com/diagram/assets/fonts/noto/noto-regular.woff') format('woff'),
                     url('https://app.creately.com/diagram/assets/fonts/noto/noto-regular.woff2') format('woff2');
                font-weight: normal;
                font-style: normal;
            }
        p {
            margin: 0;
        }
        </style></defs><defs><style>
            span{ display: inline-block; }
        </style></defs><g id="1q64920x3c"><g transform="translate(195 320)"><linearGradient id="e4768" x1="557.5000381469727" y1="-337.5000214576721" x2="557.5000381469727" y2="675.0000429153442" gradientUnits="userSpaceOnUse"><stop offset="0%" stop-color="rgba(255,255,255,1)"/><stop offset="100%" stop-color="rgba(239,239,239,1)"/></linearGradient><rect x="0" y="0" width="1115.0000762939453" height="675.0000429153442" fill="url(#e4768)" stroke="#ffffff" stroke-width="2" stroke-linecap="round" stroke-linejoin="round"/></g></g><g id="1pzxxy5o65"><g transform="translate(260 400)"></g><g transform="translate(267.95, 438.95) rotate(0, 0, 0)" width="83" height="19"><text text-decoration="none" x="0" fill="#000000" font-size="9pt" font-family="Arial"  y="17">New&#160;</text><text text-decoration="none" x="28" fill="#000000" font-size="9pt" font-family="Arial"  y="17">Member&#160;</text><text text-decoration="none" x="79" fill="#4b4b4b" font-size="10pt" font-family="noto_regular"  y="17"></text></g></g><g id="zetm6lxvxy"><g transform="translate(550 430)"><path d="M 74.7727295011282,27.595780653834343 C 74.7727295011282,32.12822028556466 70.69363847047092,35.802198365330696 65.66136559322476,35.802198365330696 L 9.338636641949416,35.802198365330696 C 4.306363764703274,35.802198365330696 0.22727273404598236,32.12822028556466 0.22727273404598236,27.595780653834343 L 0.22727273404598236,8.40342870360613 C 0.22727273404598236,3.8713846762776374 4.306363764703274,0.19780220091342926 9.338636641949416,0.19780220091342926 L 65.66136559322476,0.19780220091342926 C 70.6936384704709,0.19780220091342926 74.7727295011282,3.8713846762776374 74.7727295011282,8.40342870360613 L 74.7727295011282,27.595780653834343 Z" fill="rgb(255, 255, 255)" stroke="rgb(0, 0, 0)" stroke-width="1.5" vector-effect="non-scaling-stroke"/></g><g transform="translate(565.8, 436.3) rotate(0, 0, 0)" width="37" height="19"><text text-decoration="none" x="0" fill="#000000" font-size="9pt" font-family="Arial"  y="17">Login&#160;</text><text text-decoration="none" x="33" fill="#4b4b4b" font-size="10pt" font-family="noto_regular"  y="17"></text></g></g><g id="1b6a449cto"><mask id="8b99b" x="350" y="440" width="210" height="20" maskUnits="userSpaceOnUse"><rect x="350" y="440" width="210" height="20" fill="white" /><rect x="419.5" y="430" width="71" height="40" fill="black" /></mask><g mask="url(#8b99b)"><path d="M 360,450 L 550,450" fill="none"/><path d="M 550,450 L 541.304347826087,444.25 L 541.304347826087,455.75 Z" fill="rgb(0,0,0)"/></g><g transform="translate(422.5, 433)" width="65" height="34"><text text-decoration="none" x="1.5" fill="rgb(0, 0, 0)" font-size="9pt" font-family="Arial"  y="13">User&#160;</text><text text-decoration="none" x="31.5" fill="rgb(0, 0, 0)" font-size="9pt" font-family="Arial"  y="13">name</text><text text-decoration="none" x="63.5" fill="rgb(0, 0, 0)" font-size="9pt" font-family="Arial"  y="13"></text><text text-decoration="none" x="5.5" fill="rgb(0, 0, 0)" font-size="9pt" font-family="Arial"  y="35">Password</text><text text-decoration="none" x="59.5" fill="#4b4b4b" font-size="10pt" font-family="noto_regular"  y="35"></text></g></g><g id="7pn97dq82q"><g transform="translate(725 425)"><path d="M 165.44453179836273,41.393672020196924 C 165.44453179836273,48.192331638515 156.41900457429887,53.70329889655114 145.28443672299383,53.70329889655114 L 20.66296599268913,53.70329889655113 C 9.528398141384123,53.70329889655113 0.5028709173202494,48.19233163851499 0.5028709173202497,41.39367202019692 L 0.5028709173202509,12.60514337193966 C 0.5028709173202512,5.80707716023922 9.528398141384125,0.2967033088207249 20.662965992689134,0.2967033088207254 L 145.28443672299383,0.2967033088207307 C 156.41900457429884,0.2967033088207312 165.44453179836273,5.807077160239227 165.44453179836273,12.605143371939667 L 165.44453179836273,41.393672020196924 Z" fill="rgb(255, 255, 255)" stroke="rgb(0, 0, 0)" stroke-width="1.5" vector-effect="non-scaling-stroke"/></g><g transform="translate(742.425, 432.3) rotate(0, 65.5, 0)" width="131" height="34"><text text-decoration="none" x="6" fill="#000000" font-size="9pt" font-family="Arial"  y="13">Credentiality&#160;</text><text text-decoration="none" x="80" fill="#000000" font-size="9pt" font-family="Arial"  y="13">check&#160;</text><text text-decoration="none" x="115" fill="#000000" font-size="9pt" font-family="Arial"  y="13">in</text><text text-decoration="none" x="125" fill="#000000" font-size="9pt" font-family="Arial"  y="13"></text><text text-decoration="none" x="18.5" fill="#000000" font-size="9pt" font-family="Arial"  y="35">Active&#160;</text><text text-decoration="none" x="55.5" fill="#000000" font-size="9pt" font-family="Arial"  y="35">Hours&#160;</text><text text-decoration="none" x="92.5" fill="#000000" font-size="9pt" font-family="Arial"  y="35">DB&#160;</text><text text-decoration="none" x="112.5" fill="#4b4b4b" font-size="10pt" font-family="noto_regular"  y="35"></text></g></g><g id="cd28zad94b"><g transform="translate(1005 500)"><rect x="0" y="0" width="40" height="41" fill="rgba(255,255,255,1)" stroke="#000000" stroke-width="1" stroke-linecap="round" stroke-linejoin="round"/><path d="M 201,0 L 40,0 L 40,41 L 201,41" fill="rgb(255,255,255)" stroke="#000000" stroke-width="1" stroke-linecap="round" stroke-linejoin="round"/></g><g transform="translate(1097, 511) rotate(0, 8.5, 9.5)" width="17" height="19"><text text-decoration="none" x="0.5" fill="rgb(0, 0, 0)" font-size="9pt" font-family="Arial"  y="17">D1</text><text text-decoration="none" x="16.5" fill="#4b4b4b" font-size="10pt" font-family="noto_regular"  y="17"></text></g><g transform="translate(1018, 511.5) rotate(0, 7, 9)" width="14" height="18"><text text-decoration="none" x="0.5" fill="rgb(75, 75, 75)" font-size="10pt" font-family="noto_regular"  y="17">ID</text><text text-decoration="none" x="13.5" fill="#4b4b4b" font-size="10pt" font-family="noto_regular"  y="17"></text></g></g><g id="1dqm4zse99"><g><path d="M 625,450 L 725,450" fill="none" stroke="#000000" stroke-width="1.5" stroke-linecap="round" stroke-linejoin="round"/><path d="M 725,450 L 716.304347826087,444.25 L 716.304347826087,455.75 Z" fill="rgb(0,0,0)" stroke="#000000" stroke-width="1.5" stroke-linecap="round" stroke-linejoin="round"/></g></g><g id="2146usigzc"><g><path d="M 890,450 L 947.9737013578415,450 L 947.9737013578415,485 L 947.9737013578415,520 L 1005,520" fill="none" stroke="#000000" stroke-width="1.5" stroke-linecap="round" stroke-linejoin="round"/><path d="M 1005,520 L 996.304347826087,514.25 L 996.304347826087,525.75 Z" fill="rgb(0,0,0)" stroke="#000000" stroke-width="1.5" stroke-linecap="round" stroke-linejoin="round"/></g></g><g id="7bog4mr11y"><g transform="translate(725 750)"><path d="M 166.14393949508667,47.86142976522447 C 166.14393949508667,55.72237937271596 157.0802573490143,62.09443479776384 145.89861872196195,62.09443479776384 L 20.750317549705503,62.094434797763824 C 9.568678922653193,62.094434797763824 0.5049967765808058,55.72237937271595 0.5049967765808064,47.86142976522446 L 0.5049967765808093,14.574695955514908 C 0.50499677658081,6.714432474374771 9.568678922653199,0.343063175678254 20.750317549705507,0.34306317567825495 L 145.89861872196195,0.3430631756782656 C 157.08025734901426,0.34306317567826655 166.14393949508667,6.714432474374785 166.14393949508667,14.574695955514922 L 166.14393949508667,47.86142976522447 Z" fill="rgb(255, 255, 255)" stroke="rgb(0, 0, 0)" stroke-width="1.5" vector-effect="non-scaling-stroke"/></g><g transform="translate(732.3, 771.5) rotate(0, 0, 0)" width="163" height="19"><text text-decoration="none" x="0" fill="#000000" font-size="9pt" font-family="Arial"  y="17">Credentiality&#160;</text><text text-decoration="none" x="74" fill="#000000" font-size="9pt" font-family="Arial"  y="17">check&#160;</text><text text-decoration="none" x="109" fill="#000000" font-size="9pt" font-family="Arial"  y="17">in&#160;</text><text text-decoration="none" x="122" fill="#000000" font-size="9pt" font-family="Arial"  y="17">ADP&#160;</text><text text-decoration="none" x="149" fill="#4b4b4b" font-size="10pt" font-family="noto_regular"  y="17"></text></g></g><g id="128wsfv5m5"><mask id="f30f9" x="877" y="507" width="141" height="286" maskUnits="userSpaceOnUse"><rect x="877" y="507" width="141" height="286" fill="white" /><rect x="900.8244681358337" y="623.3244681358337" width="95" height="55" fill="black" /></mask><g mask="url(#f30f9)"><path d="M 1005,520 L 948.3244681358337,520 L 948.3244681358337,650 L 948.3244681358337,780 L 890,780" fill="none" stroke="#000000" stroke-width="1.5" stroke-linecap="round" stroke-linejoin="round"/><path d="M 890,780 L 898.695652173913,785.75 L 898.695652173913,774.25 Z" fill="rgb(0,0,0)" stroke="#000000" stroke-width="1.5" stroke-linecap="round" stroke-linejoin="round"/></g><g transform="translate(903.8244681358337, 626.3244681358337)" width="89" height="49"><text text-decoration="none" x="1.5" fill="rgb(0, 0, 0)" font-size="9pt" font-family="Arial"  y="13">ADP&#160;</text><text text-decoration="none" x="28.5" fill="rgb(0, 0, 0)" font-size="9pt" font-family="Arial"  y="13">Username</text><text text-decoration="none" x="87.5" fill="rgb(0, 0, 0)" font-size="9pt" font-family="Arial"  y="13"></text><text text-decoration="none" x="4" fill="rgb(0, 0, 0)" font-size="9pt" font-family="Arial"  y="31">ADP&#160;</text><text text-decoration="none" x="31" fill="rgb(0, 0, 0)" font-size="9pt" font-family="Arial"  y="31">Password</text><text text-decoration="none" x="85" fill="rgb(0, 0, 0)" font-size="9pt" font-family="Arial"  y="31"></text><text text-decoration="none" x="44.5" fill="#4b4b4b" font-size="10pt" font-family="noto_regular"  y="53"></text></g></g><g id="97dqlbzt5w"><mask id="0abdc" x="797" y="467" width="26" height="296" maskUnits="userSpaceOnUse"><rect x="797" y="467" width="26" height="296" fill="white" /><rect x="750" y="602.5" width="120" height="25" fill="black" /></mask><g mask="url(#0abdc)"><path d="M 810,480 L 810,750" fill="none" stroke="#000000" stroke-width="1.5" stroke-linecap="round" stroke-linejoin="round"/><path d="M 810,750 L 815.75,741.304347826087 L 804.25,741.304347826087 Z" fill="rgb(0,0,0)" stroke="#000000" stroke-width="1.5" stroke-linecap="round" stroke-linejoin="round"/></g><g transform="translate(753, 605.5)" width="114" height="19"><text text-decoration="none" x="5" fill="rgb(0, 0, 0)" font-size="9pt" font-family="Arial"  y="17">If&#160;</text><text text-decoration="none" x="15" fill="rgb(0, 0, 0)" font-size="9pt" font-family="Arial"  y="17">existing&#160;</text><text text-decoration="none" x="61" fill="rgb(0, 0, 0)" font-size="9pt" font-family="Arial"  y="17">member</text><text text-decoration="none" x="109" fill="#4b4b4b" font-size="10pt" font-family="noto_regular"  y="17"></text></g></g><g id="30n1p070lv"><g transform="translate(380 545)"><path d="M 144.0932812690735,39.900916165351866 C 144.0932812690735,46.45439968657493 136.23253290367128,51.76662814617157 126.53492368221282,51.76662814617157 L 17.996331086158754,51.76662814617157 C 8.298721864700317,51.76662814617157 0.4379734992980957,46.45439968657493 0.4379734992980957,39.900916165351866 L 0.4379734992980957,12.150571437358856 C 0.4379734992980957,5.5976599230766295 8.298721864700317,0.2860034704208374 17.996331086158754,0.2860034704208374 L 126.53492368221282,0.2860034704208374 C 136.23253290367126,0.2860034704208374 144.0932812690735,5.5976599230766295 144.0932812690735,12.150571437358856 L 144.0932812690735,39.900916165351866 Z" fill="rgb(255, 255, 255)" stroke="rgb(0, 0, 0)" stroke-width="1.5" vector-effect="non-scaling-stroke"/></g><g transform="translate(404.3, 559.3) rotate(0, 0, 0)" width="94" height="19"><text text-decoration="none" x="0" fill="#000000" font-size="9pt" font-family="Arial"  y="17">Show&#160;</text><text text-decoration="none" x="33" fill="#000000" font-size="9pt" font-family="Arial"  y="17">message&#160;</text><text text-decoration="none" x="87" fill="#4b4b4b" font-size="10pt" font-family="noto_regular"  y="17"></text></g></g><g id="1y82dd8mmx"><mask id="091fc" x="512" y="467" width="311" height="116" maskUnits="userSpaceOnUse"><rect x="512" y="467" width="311" height="116" fill="white" /><rect x="611.0413385826771" y="557.5" width="104" height="25" fill="black" /></mask><g mask="url(#091fc)"><path d="M 810,480 L 810,570 L 525,570" fill="none" stroke="#000000" stroke-width="1.5" stroke-linecap="round" stroke-linejoin="round"/><path d="M 525,570 L 533.695652173913,575.75 L 533.695652173913,564.25 Z" fill="rgb(0,0,0)" stroke="#000000" stroke-width="1.5" stroke-linecap="round" stroke-linejoin="round"/></g><g transform="translate(614.0413385826771, 560.5)" width="98" height="19"><text text-decoration="none" x="4.5" fill="rgb(0, 0, 0)" font-size="9pt" font-family="Arial"  y="17">If&#160;</text><text text-decoration="none" x="14.5" fill="rgb(0, 0, 0)" font-size="9pt" font-family="Arial"  y="17">not&#160;</text><text text-decoration="none" x="35.5" fill="rgb(0, 0, 0)" font-size="9pt" font-family="Arial"  y="17">a&#160;</text><text text-decoration="none" x="45.5" fill="rgb(0, 0, 0)" font-size="9pt" font-family="Arial"  y="17">member</text><text text-decoration="none" x="93.5" fill="#4b4b4b" font-size="10pt" font-family="noto_regular"  y="17"></text></g></g><g id="1da0i33fs3"><g><path d="M 380,570 L 310,570 L 310,500" fill="none" stroke="#000000" stroke-width="1.5" stroke-linecap="round" stroke-linejoin="round"/><path d="M 310,500 L 304.25,508.69565217391306 L 315.75,508.69565217391306 Z" fill="rgb(0,0,0)" stroke="#000000" stroke-width="1.5" stroke-linecap="round" stroke-linejoin="round"/></g></g><g id="1k2ntlywi9"><g transform="translate(1030 900)"><rect x="0" y="0" width="40" height="41" fill="rgba(255,255,255,1)" stroke="#000000" stroke-width="1" stroke-linecap="round" stroke-linejoin="round"/><path d="M 201,0 L 40,0 L 40,41 L 201,41" fill="rgb(255,255,255)" stroke="#000000" stroke-width="1" stroke-linecap="round" stroke-linejoin="round"/></g><g transform="translate(1122, 911) rotate(0, 8.5, 9.5)" width="17" height="19"><text text-decoration="none" x="0.5" fill="rgb(0, 0, 0)" font-size="9pt" font-family="Arial"  y="17">D2</text><text text-decoration="none" x="16.5" fill="#4b4b4b" font-size="10pt" font-family="noto_regular"  y="17"></text></g><g transform="translate(1043, 911.5) rotate(0, 7, 9)" width="14" height="18"><text text-decoration="none" x="0.5" fill="rgb(75, 75, 75)" font-size="10pt" font-family="noto_regular"  y="17">ID</text><text text-decoration="none" x="13.5" fill="#4b4b4b" font-size="10pt" font-family="noto_regular"  y="17"></text></g></g><g id="23dutd92wk"><mask id="10e9a" x="797" y="797" width="246" height="136" maskUnits="userSpaceOnUse"><rect x="797" y="797" width="246" height="136" fill="white" /><rect x="817.5" y="900" width="95" height="40" fill="black" /></mask><g mask="url(#10e9a)"><path d="M 810,810 L 810,920 L 1030,920" fill="none" stroke="#000000" stroke-width="1.5" stroke-linecap="round" stroke-linejoin="round"/><path d="M 1030,920 L 1021.304347826087,914.25 L 1021.304347826087,925.75 Z" fill="rgb(0,0,0)" stroke="#000000" stroke-width="1.5" stroke-linecap="round" stroke-linejoin="round"/></g><g transform="translate(820.5, 903)" width="89" height="34"><text text-decoration="none" x="1.5" fill="rgb(0, 0, 0)" font-size="9pt" font-family="Arial"  y="13">ADP&#160;</text><text text-decoration="none" x="28.5" fill="rgb(0, 0, 0)" font-size="9pt" font-family="Arial"  y="13">Username</text><text text-decoration="none" x="87.5" fill="rgb(0, 0, 0)" font-size="9pt" font-family="Arial"  y="13"></text><text text-decoration="none" x="4" fill="rgb(0, 0, 0)" font-size="9pt" font-family="Arial"  y="35">ADP&#160;</text><text text-decoration="none" x="31" fill="rgb(0, 0, 0)" font-size="9pt" font-family="Arial"  y="35">Password</text><text text-decoration="none" x="85" fill="#4b4b4b" font-size="10pt" font-family="noto_regular"  y="35"></text></g></g><g id="117ckfeuv3"><g transform="translate(575 335.05)"><rect x="0" y="0" width="425.5989074707031" height="45.06947326660156" fill="rgba(255,255,255,0.01)" stroke="rgba(255,255,255,0.01)" stroke-width="NaN" stroke-linecap="round" stroke-linejoin="round"/></g><g transform="translate(597.7994537353516, 327.5847366333008) rotate(0, 190, 30)" width="380" height="60"><text text-decoration="none" x="21.5" fill="rgb(75, 75, 75)" font-style="italic" font-size="19pt" font-family="Lato"  y="27">Data&#160;</text><text text-decoration="none" x="81.5" fill="rgb(75, 75, 75)" font-style="italic" font-size="19pt" font-family="Lato"  y="27">Flow&#160;</text><text text-decoration="none" x="138.5" fill="rgb(75, 75, 75)" font-style="italic" font-size="19pt" font-family="Lato"  y="27">Diagram&#160;</text><text text-decoration="none" x="241.5" fill="rgb(75, 75, 75)" font-style="italic" font-size="19pt" font-family="Lato"  y="27">for&#160;</text><text text-decoration="none" x="280.5" fill="rgb(75, 75, 75)" font-style="italic" font-size="19pt" font-family="Lato"  y="27">System&#160;</text><text text-decoration="none" x="160.5" fill="rgb(75, 75, 75)" font-style="italic" font-size="19pt" font-family="Lato"  y="61">Login</text><text text-decoration="none" x="219.5" fill="#4b4b4b" font-size="10pt" font-family="noto_regular"  y="61"></text></g></g></svg>